<svg width="212" height="361" viewBox="0 0 212 361" fill="none" xmlns="http://www.w3.org/2000/svg">
<g clip-path="url(#clip0_29_185)">
<path d="M147.948 171.106H76.2915V185.969H147.948V171.106Z" fill="#FFC727"/>
<path d="M95.5426 185.851L93.5224 204.876L68.6861 361H61.6749L81.1637 204.876L82.7085 185.851H95.5426Z" fill="#FFC727"/>
<path d="M162.565 361H155.435L130.718 204.876L128.697 185.851H141.413L142.957 204.876L162.565 361Z" fill="#FFC727"/>
<path d="M150.563 311.772H71.5381V316.172H150.563V311.772Z" fill="#FFC727"/>
<path opacity="0.1" d="M81.1637 204.162H93.5224L95.5426 185.851H82.7085L81.1637 204.162Z" fill="black"/>
<path opacity="0.1" d="M142.957 204.162H130.718L128.697 185.851H141.413L142.957 204.162Z" fill="black"/>
<path d="M0.47534 196.433C1.30718 194.055 43.2556 138.526 46.1076 137.455C46.4641 137.336 65.2399 150.654 65.2399 150.654C66.0718 151.724 101.722 144.114 101.722 144.114L102.078 187.158L37.0762 185.731C37.0762 185.731 28.2825 190.844 20.3206 195.125C15.3296 197.741 11.0516 199.881 9.7444 200.238C6.29821 201.189 -0.356498 198.811 0.47534 196.433Z" fill="#F7A9A0"/>
<path d="M9.62557 200.357C10.9327 200 15.2108 197.86 20.2018 195.244C28.2825 191.082 36.9574 185.851 36.9574 185.851L51.4552 186.207L74.1525 149.703C69.1614 150.535 65.4776 151.13 65.2399 150.773C65.2399 150.773 46.4641 137.456 46.1076 137.575C43.2556 138.645 1.30718 194.174 0.475341 196.552C-0.356498 198.811 6.29821 201.189 9.62557 200.357Z" fill="white"/>
<path d="M0.118838 196.552C0.950676 194.174 43.1368 138.644 46.1076 137.574C47.1771 137.098 56.4462 142.806 65.2399 150.773L38.0269 186.445C38.0269 186.445 12.9529 199.762 9.50673 200.594C6.06054 201.427 -0.713001 198.93 0.118838 196.552Z" fill="#A6A6A6"/>
<path d="M2.85202 197.384C10.1009 188.228 38.7399 150.773 45.2758 141.141C45.2758 141.023 45.2758 141.023 45.2758 141.141C37.7892 150.059 9.62557 187.753 2.85202 197.265C2.61436 197.503 2.73319 197.622 2.85202 197.384Z" fill="#263238"/>
<path d="M14.1413 198.573C15.9238 196.433 16.5179 193.46 16.0426 191.32C15.6861 189.18 14.6166 186.921 12.7153 185.494L12.5964 185.613C15.9238 188.823 16.5179 194.531 14.1413 198.573C14.1413 198.692 14.0224 198.573 14.1413 198.573Z" fill="#263238"/>
<path d="M34.8184 188.704C37.6704 185.018 39.6906 179.667 38.3834 175.03C38.3834 174.792 38.0269 174.911 38.0269 175.03C37.1951 179.667 36.0067 183.948 34.343 188.347C34.1054 188.704 34.5807 188.942 34.8184 188.704Z" fill="#263238"/>
<path d="M31.491 190.726C34.3431 187.04 36.3632 181.689 35.0561 177.051C35.0561 176.814 34.6996 176.932 34.6996 177.051C33.8677 181.689 32.6794 185.969 31.0157 190.369C30.8969 190.726 31.2534 190.963 31.491 190.726Z" fill="#263238"/>
<path d="M28.1637 192.747C31.0157 189.061 33.0359 183.71 31.7287 179.072C31.7287 178.835 31.3722 178.953 31.3722 179.072C30.5404 183.71 29.352 187.99 27.6883 192.39C27.5695 192.747 27.926 192.984 28.1637 192.747Z" fill="#263238"/>
<path d="M24.8363 194.768C27.6883 191.082 29.7085 185.731 28.4013 181.094C28.4013 180.856 28.0448 180.975 28.0448 181.094C27.213 185.731 26.0247 190.012 24.361 194.411C24.2421 194.768 24.7175 195.006 24.8363 194.768Z" fill="#263238"/>
<path d="M52.287 150.297C55.4955 146.135 48.9597 141.141 45.7511 145.422C42.6614 149.584 49.0785 154.459 52.287 150.297Z" fill="#263238"/>
<path d="M41.7108 200.238C44.6816 199.525 45.0381 195.958 44.2063 193.579C43.0179 189.655 40.2848 185.613 37.3139 182.997C37.1951 182.878 37.1951 182.997 37.0762 182.997C36.7197 182.878 36.2444 182.997 36.2444 183.472C36.0067 187.515 35.4126 191.796 36.4821 195.839C37.0762 198.098 38.8587 200.833 41.7108 200.238ZM37.1951 189.655C37.1951 187.634 37.4327 185.732 37.3139 183.71C38.6211 185.732 40.0471 187.753 41.2354 190.012C41.8296 191.082 42.3049 192.152 42.6614 193.223C43.2556 195.006 43.6121 200.952 39.3341 198.217C36.9574 196.79 37.1951 192.034 37.1951 189.655Z" fill="#263238"/>
<path d="M42.8991 172.651C39.9283 175.505 38.2646 179.548 36.3632 183.115C36.1256 183.472 36.4821 183.829 36.8386 183.948C36.8386 184.066 36.8386 184.066 36.9574 184.066C40.8789 183.353 45.3946 181.213 48.3655 178.597C50.2668 176.932 51.8117 173.722 49.5538 171.581C47.5336 169.56 44.6816 170.987 42.8991 172.651ZM46.7018 172.057C51.8117 171.938 48.3655 176.932 46.9395 178.121C45.9888 178.835 45.0381 179.548 43.9686 180.143C41.8296 181.45 39.5718 182.402 37.3139 183.472C38.3834 181.807 39.2153 180.024 40.2848 178.24C41.5919 176.338 43.9686 172.057 46.7018 172.057Z" fill="#263238"/>
<path d="M103.623 131.035H132.738C132.738 131.035 163.278 116.409 187.758 122.236C215.922 129.013 219.487 164.447 198.453 176.933C171.715 192.747 53.1188 189.774 53.1188 189.774L78.787 146.255C78.787 146.255 118.24 137.931 154.009 139.12L103.504 146.017V131.035H103.623Z" fill="#37474F"/>
<path d="M77.1233 148.99C77.1233 148.99 77.1233 148.871 77.1233 148.752C77.1233 148.633 77.1233 148.633 77.1233 148.514C77.1233 148.395 77.2421 148.276 77.2421 148.038C77.361 147.801 77.4798 147.444 77.5987 147.206C77.7175 146.968 77.8363 146.611 77.9552 146.374C78.074 146.136 78.3117 145.898 78.4305 145.66C78.4305 145.66 78.4305 145.66 78.5493 145.66C78.5493 145.66 78.5493 145.66 78.6682 145.66C78.6682 145.66 78.6682 145.66 78.787 145.66C83.1839 144.828 112.655 140.666 117.052 140.072C121.448 139.596 125.964 139.12 130.361 138.764C139.155 138.05 148.067 137.693 156.98 137.812C157.812 137.812 158.643 137.812 159.475 137.931C159.594 137.931 159.832 137.812 160.07 137.812C160.545 137.693 160.901 137.575 161.377 137.575C162.209 137.456 163.04 137.337 163.753 137.218C165.417 136.98 167.081 136.742 168.744 136.504C168.863 136.504 168.863 136.623 168.744 136.623C167.081 136.98 165.417 137.456 163.753 137.812C163.278 137.931 162.803 138.05 162.327 138.169C165.536 138.288 168.863 138.645 172.072 138.883C172.191 138.883 172.191 139.001 172.072 139.001C167.675 138.764 163.159 138.764 158.762 138.764C154.365 138.883 149.969 138.883 145.572 139.239C136.659 139.715 127.865 140.547 118.953 141.498C113.962 141.974 83.8969 146.374 78.9058 146.611C78.9058 146.611 78.9058 146.611 78.787 146.611C78.787 146.73 78.6682 146.849 78.6682 146.968C78.5493 147.206 78.4305 147.563 78.1928 147.801C78.074 148.038 77.9552 148.276 77.7175 148.514C77.5987 148.633 77.5986 148.752 77.4798 148.871C77.4798 148.99 77.361 148.99 77.361 149.108C77.361 149.108 77.2421 149.227 77.2421 149.346C77.2421 149.227 77.0045 149.108 77.1233 148.99Z" fill="#263238"/>
<path d="M62.3879 187.04C63.9327 184.543 65.3587 181.808 66.7848 179.192C68.2108 176.576 69.7556 173.96 71.1816 171.344C74.1525 166.112 84.6099 148.514 85.5605 147.206C85.6794 147.087 85.7982 147.206 85.6794 147.325C85.204 148.633 78.6682 160.405 77.1233 163.021C74.1525 168.252 70.9439 173.365 67.8543 178.478C67.0224 179.905 66.0717 181.451 65.1211 182.878C64.1704 184.305 63.2197 185.732 62.3879 187.277C62.5067 187.277 62.3879 187.159 62.3879 187.04Z" fill="#263238"/>
<path d="M85.9171 151.605C88.5314 151.011 91.2646 150.535 93.8789 150.06C96.4933 149.584 99.2265 149.108 101.841 148.514C107.188 147.563 112.417 146.611 117.765 145.66C128.341 143.877 139.036 142.331 149.731 141.38C155.791 140.785 161.852 140.428 167.913 139.953C168.031 139.953 168.031 140.19 167.913 140.19C157.099 140.666 146.285 142.093 135.59 143.639C125.013 145.185 114.437 146.849 103.861 148.633C100.89 149.108 97.9193 149.703 94.9484 150.179C91.9776 150.654 88.8879 151.368 85.9171 151.724C85.7982 151.724 85.7982 151.605 85.9171 151.605Z" fill="#263238"/>
<path d="M55.7332 338.051C58.3475 337.813 121.924 309.156 123.587 306.54C124.3 305.589 120.617 296.077 115.982 284.662C114.913 282.165 113.962 279.668 112.774 277.171C105.644 260.524 97.8005 243.044 97.8005 243.044L55.2579 262.069L71.4193 295.72L74.9843 303.092C74.9843 303.092 55.4955 324.971 53.9507 328.063C52.287 331.035 53.2377 338.288 55.7332 338.051Z" fill="#F7A9A0"/>
<path d="M55.7332 338.05C58.3475 337.813 121.924 309.156 123.587 306.54C124.419 305.351 118.834 291.558 112.774 277.17L71.3005 295.601L74.8655 302.973C74.8655 302.973 55.3767 324.852 53.8318 327.943C52.287 331.035 53.2377 338.288 55.7332 338.05Z" fill="white"/>
<path d="M55.7332 338.051C58.3475 337.813 121.924 309.156 123.587 306.54C124.3 305.589 120.617 296.077 115.982 284.662L74.8655 302.973C74.8655 302.973 55.3767 324.852 53.8318 327.944C52.287 331.035 53.2377 338.288 55.7332 338.051Z" fill="#A6A6A6"/>
<path d="M55.4955 335.078C66.0718 329.965 109.09 310.583 119.904 306.421C120.022 306.421 120.022 306.421 119.904 306.54C109.565 311.772 66.4283 330.797 55.6144 335.316C55.3767 335.316 55.2579 335.197 55.4955 335.078Z" fill="#263238"/>
<path d="M56.9215 323.782C59.4171 322.593 62.3879 322.593 64.5269 323.544C66.5471 324.376 68.5673 325.922 69.5179 328.181C69.5179 328.3 69.3991 328.3 69.3991 328.181C66.9036 324.258 61.4372 322.355 57.0404 323.901C56.9215 324.02 56.8027 323.901 56.9215 323.782Z" fill="#263238"/>
<path d="M71.3005 305.946C75.5785 303.925 81.1637 303.211 85.4417 305.589C85.5605 305.708 85.4417 305.946 85.3229 305.946C80.5695 305.708 76.2915 305.827 71.5381 306.54C71.0628 306.54 70.944 306.065 71.3005 305.946Z" fill="#263238"/>
<path d="M68.5673 308.681C72.8453 306.659 78.4305 305.946 82.7085 308.324C82.8274 308.443 82.7085 308.681 82.5897 308.681C77.8363 308.443 73.5583 308.562 68.8049 309.275C68.3296 309.275 68.2108 308.8 68.5673 308.681Z" fill="#263238"/>
<path d="M65.8341 311.534C70.1121 309.513 75.6973 308.799 79.9754 311.178C80.0942 311.297 79.9753 311.534 79.8565 311.534C75.1032 311.297 70.8251 311.415 66.0718 312.129C65.7153 312.129 65.4776 311.653 65.8341 311.534Z" fill="#263238"/>
<path d="M63.1009 314.269C67.3789 312.248 72.9641 311.534 77.2422 313.912C77.361 314.031 77.2422 314.269 77.1233 314.269C72.37 314.031 68.0919 314.15 63.3386 314.864C62.9821 314.864 62.8632 314.388 63.1009 314.269Z" fill="#263238"/>
<path d="M112.655 297.504C117.408 295.363 120.735 302.854 115.982 304.995C111.11 307.135 107.783 299.644 112.655 297.504Z" fill="#263238"/>
<path d="M64.6458 302.736C68.3296 304.638 72.6076 304.995 76.648 305.708C77.0045 305.827 77.361 305.352 77.2422 304.995C77.361 304.995 77.361 304.876 77.361 304.757C75.4597 301.19 72.1323 297.623 68.5673 295.601C66.4283 294.293 62.8632 293.818 61.5561 296.553C60.2489 299.287 62.5067 301.547 64.6458 302.736ZM62.8632 299.287C61.1996 294.412 67.0224 296.077 68.5673 297.147C69.518 297.742 70.4686 298.574 71.4193 299.287C73.3206 300.952 74.9843 302.736 76.648 304.519C74.7466 304.044 72.7265 303.687 70.8251 303.33C68.5673 302.855 63.8139 301.903 62.8632 299.287Z" fill="#263238"/>
<path d="M91.2646 295.245C89.7197 292.629 86.2736 293.461 84.1345 294.888C80.8072 297.266 77.7175 301.071 76.1727 304.757C76.1727 304.876 76.1727 304.876 76.2915 304.876C76.2915 305.233 76.5292 305.589 77.0045 305.47C80.926 304.4 85.204 303.687 88.6502 301.547C90.6704 300.357 92.8094 297.742 91.2646 295.245ZM82.5897 302.736C80.6884 303.33 78.787 303.806 76.8857 304.4C78.4305 302.498 79.8565 300.476 81.639 298.693C82.4709 297.86 83.3027 297.028 84.2534 296.315C85.6794 295.245 91.3834 292.985 90.0762 297.979C89.4821 300.833 84.8475 302.141 82.5897 302.736Z" fill="#263238"/>
<path d="M111.823 273.247L63.9327 294.888C63.9327 294.888 6.89238 185.375 5.46637 151.843C4.1592 123.306 24.0045 112.247 88.1749 130.797L103.861 131.034V141.855C96.9686 142.806 78.5493 145.66 78.5493 145.66C65.1211 150.773 60.8431 152.794 61.0807 153.27C94.4731 220.69 111.823 273.247 111.823 273.247Z" fill="#37474F"/>
<path d="M53.2377 141.142C55.139 143.758 56.9215 146.374 58.7041 149.108C69.0426 144.59 80.213 141.855 91.3834 140.547C94.5919 140.19 97.6816 139.834 100.89 139.715C101.009 139.715 101.009 139.953 100.89 139.953C89.6009 140.666 78.4305 142.925 67.6166 146.255C64.6458 147.206 61.6749 148.276 58.8229 149.346C60.8431 152.676 62.8632 156.005 64.6458 159.453C68.0919 165.755 71.1816 172.295 74.0336 179.073C75.5785 182.759 77.1233 186.445 78.4305 190.25C78.4305 190.369 78.3117 190.369 78.1928 190.369C72.37 177.289 65.9529 164.566 59.0606 152.081C57.1592 148.514 55.0202 145.066 53.1188 141.498C53 141.261 53.1188 141.142 53.2377 141.142Z" fill="#263238"/>
<path d="M62.8632 283.354C65.7153 282.284 68.3296 280.857 71.0628 279.668C73.796 278.479 76.5292 277.171 79.2623 275.982C84.7287 273.485 103.623 265.637 105.287 265.28C105.406 265.28 105.406 265.399 105.406 265.518C104.217 266.35 91.9776 271.701 89.2444 272.89C83.6592 275.268 78.074 277.409 72.6076 279.668C71.0628 280.262 69.3991 280.976 67.8543 281.57C66.3094 282.165 64.6457 282.76 63.1009 283.473C62.8632 283.592 62.7444 283.354 62.8632 283.354Z" fill="#263238"/>
<path d="M53.4753 146.136C57.278 153.27 60.4866 160.88 63.8139 168.252C67.1413 175.625 70.231 183.116 73.3206 190.607C79.5 205.47 85.204 220.571 90.5516 235.791C93.5224 244.353 96.3745 253.033 99.1076 261.713C99.1076 261.832 98.9888 261.832 98.87 261.713C93.7601 246.374 88.2937 231.154 82.5897 215.934C76.8857 200.833 70.8251 185.851 64.2892 171.106C62.5067 166.944 60.6054 162.783 58.8229 158.621C56.9215 154.459 55.0202 150.416 53.2377 146.136C53.1188 146.136 53.3565 146.017 53.4753 146.136Z" fill="#263238"/>
<path d="M83.778 55.2916C62.3879 71.8196 42.8991 90.8446 40.5224 101.903C39.0964 108.918 44.444 120.215 48.3655 126.754C50.2668 129.965 80.5695 110.583 77.2422 108.205C69.2803 102.26 67.6166 99.6437 68.0919 98.0979C68.3296 97.1467 90.1951 69.9171 95.6614 58.5021C103.386 42.6875 93.1659 48.0383 83.778 55.2916Z" fill="#F7A9A0"/>
<path d="M53 79.9051L73.3206 93.8172C73.3206 93.8172 92.4529 69.5602 97.0874 57.4318C101.722 45.3033 96.6121 45.0655 84.6099 53.7457C72.6076 62.188 53 79.9051 53 79.9051Z" fill="#FFC727"/>
<path d="M53 79.9051L73.3206 93.8172C73.3206 93.8172 92.4529 69.5602 97.0874 57.4318C101.722 45.3033 96.6121 45.0655 84.6099 53.7457C72.6076 62.188 53 79.9051 53 79.9051Z" fill="#FFC727"/>
<path opacity="0.1" d="M88.8879 60.6424L86.6301 60.0478L87.2242 57.7886C87.3431 57.5508 87.1054 57.313 86.8677 57.313C86.6301 57.313 86.3924 57.4319 86.3924 57.6697L85.6794 60.2856V60.4045L88.2937 61.118C88.4126 61.118 88.5314 61.118 88.6502 61.118C88.7691 61.118 88.7691 60.9991 88.8879 60.8802C89.2444 60.9991 89.0067 60.7613 88.8879 60.6424ZM90.5516 55.6483C90.5516 55.4105 90.3139 55.2916 90.1951 55.2916C89.9574 55.2916 89.8386 55.5294 89.8386 55.7672L90.4327 60.0478C90.4327 60.2856 90.6704 60.4045 90.9081 60.4045H91.0269C91.1457 60.2856 91.2646 60.1667 91.2646 60.0478L90.5516 55.6483ZM94.4731 55.6483C94.4731 55.5294 94.4731 55.5294 94.4731 55.5294L91.5023 54.5781C91.2646 54.5781 91.0269 54.697 91.0269 54.9348C90.9081 55.1727 91.1458 55.4105 91.3834 55.4105L93.6413 56.005L92.9283 58.2642C92.9283 58.502 93.0471 58.7399 93.2848 58.7399C93.4036 58.7399 93.5224 58.7399 93.6413 58.7399C93.7601 58.7399 93.8789 58.6209 93.8789 58.502L94.4731 55.8861C94.4731 55.7672 94.4731 55.7672 94.4731 55.6483C94.4731 55.7672 94.4731 55.7672 94.4731 55.6483ZM74.8655 66.231C74.7466 65.9931 74.509 65.8742 74.2713 65.9931L71.657 66.8255C71.657 66.8255 71.657 66.8255 71.657 66.9444L72.4888 69.5603C72.4888 69.6792 72.6076 69.7982 72.7265 69.7982C72.8453 69.7982 72.9641 69.7982 73.083 69.7982C73.3206 69.6792 73.4395 69.4414 73.3206 69.2036L72.6076 67.0633L74.7466 66.3499C74.8655 66.7066 74.9843 66.3499 74.8655 66.231ZM78.3117 67.8956C78.1928 67.7767 77.9552 67.6578 77.8363 67.8956L74.6278 70.6305C74.509 70.7494 74.3901 70.9872 74.6278 71.1061L74.7466 71.225C74.8655 71.225 74.9843 71.225 75.1031 71.225L78.3117 68.4902C78.4305 68.2524 78.4305 68.0146 78.3117 67.8956ZM80.5695 71.225L79.6188 68.6091C79.5 68.3713 79.2623 68.2524 79.0247 68.3713C78.787 68.4902 78.6682 68.728 78.787 68.9658L79.5 71.1061L77.361 71.8196C77.1233 71.9385 77.0045 72.1763 77.1233 72.4141C77.1233 72.533 77.2422 72.6519 77.361 72.6519C77.4798 72.6519 77.5987 72.6519 77.7175 72.6519L80.3318 71.8196C80.3318 71.8196 80.3318 71.8196 80.4507 71.8196C80.4507 71.8196 80.4507 71.8196 80.5695 71.8196C80.5695 71.3439 80.5695 71.3439 80.5695 71.225ZM62.5067 82.0455L64.1704 80.3808C64.2892 80.143 64.2892 79.9052 64.1704 79.7863C64.0516 79.6674 63.6951 79.6674 63.5762 79.7863L61.6749 81.6888C61.6749 81.6888 61.6749 81.6888 61.6749 81.8077V82.0455L63.5762 83.948C63.6951 84.0669 63.8139 84.0669 63.9327 84.0669C64.0516 84.0669 64.1704 84.0669 64.1704 83.948C64.2892 83.8291 64.2892 83.4724 64.1704 83.3535L62.5067 82.0455ZM67.9731 79.6674C67.7354 79.5485 67.6166 79.6674 67.4978 79.9052L65.8341 83.8291C65.7153 84.0669 65.8341 84.1858 66.0718 84.3047H66.1906C66.3094 84.3047 66.4283 84.1858 66.5471 84.0669L68.2108 80.143C68.2108 80.0241 68.2108 79.7863 67.9731 79.6674ZM71.5381 81.9266C71.5381 81.8077 71.5381 81.8077 71.5381 81.8077L69.6368 79.9052C69.5179 79.7863 69.1614 79.7863 69.0426 79.9052C68.9238 80.0241 68.9238 80.3808 69.0426 80.4997L70.7063 82.1644L68.9238 83.5913C68.8049 83.8291 68.8049 84.0669 68.9238 84.1858C69.0426 84.3047 69.1614 84.3047 69.2803 84.3047C69.3991 84.3047 69.5179 84.3047 69.5179 84.1858L71.4193 82.2833C71.5381 82.0455 71.5381 82.0455 71.5381 81.9266C71.5381 82.0455 71.5381 82.0455 71.5381 81.9266Z" fill="#030402"/>
<path d="M76.1727 88.5853C66.9036 83.2345 59.7736 77.2892 58.1099 76.219C57.991 76.219 58.1099 76.1001 58.2287 76.1001C59.7736 77.2892 69.1614 83.2345 76.2915 88.5853C76.2915 88.5853 76.2915 88.7042 76.1727 88.5853Z" fill="#263238"/>
<path opacity="0.1" d="M98.7511 51.4863C98.6323 52.9132 98.0381 54.9346 97.0874 57.3127C92.4529 69.4412 73.3206 93.6981 73.3206 93.6981L65.2399 88.1095L98.7511 51.4863Z" fill="black"/>
<path d="M144.978 130.678C144.859 130.916 76.2915 132.342 75.5785 131.629C74.6278 130.678 80.926 66.2305 90.9081 50.297C93.4036 46.2542 105.049 43.4005 110.278 48.7512C130.48 69.6788 145.453 129.964 144.978 130.678Z" fill="#FFC727"/>
<path opacity="0.1" d="M88.8879 60.6421L86.7489 60.1664C86.6301 60.4042 86.5112 60.761 86.5112 60.9988L88.6502 61.5933C88.7691 61.5933 88.8879 61.5933 89.0067 61.5933C89.1256 61.5933 89.1256 61.4744 89.2444 61.3555C89.2444 60.9988 89.0067 60.761 88.8879 60.6421ZM90.5516 55.648C90.5516 55.4102 90.3139 55.2913 90.1951 55.2913C89.9574 55.2913 89.8386 55.5291 89.8386 55.7669L90.4328 60.0475C90.4328 60.2853 90.6704 60.4042 90.9081 60.4042H91.0269C91.1458 60.2853 91.2646 60.1664 91.2646 60.0475L90.5516 55.648ZM94.4731 55.648C94.4731 55.5291 94.4731 55.5291 94.4731 55.5291L91.5023 54.5778C91.2646 54.5778 91.0269 54.6967 91.0269 54.9345C90.9081 55.1724 91.1458 55.4102 91.3834 55.4102L93.6413 56.0047L92.9283 58.2639C92.9283 58.5017 93.0471 58.7396 93.2848 58.7396C93.4036 58.7396 93.5224 58.7396 93.6413 58.7396C93.7601 58.7396 93.8789 58.6206 93.8789 58.5017L94.4731 55.8858C94.4731 55.7669 94.4731 55.7669 94.4731 55.648C94.4731 55.7669 94.4731 55.7669 94.4731 55.648ZM117.527 82.4019L115.269 81.8074L115.863 79.5482C115.863 79.3104 115.744 79.0726 115.507 79.0726C115.269 78.9537 115.031 79.1915 115.031 79.4293L114.437 82.0452C114.437 82.0452 114.437 82.0452 114.437 82.1641C114.437 82.1641 114.437 82.1641 114.437 82.283L117.052 82.9965C117.17 82.9965 117.289 82.9965 117.408 82.9965C117.527 82.9965 117.527 82.8776 117.646 82.7587C117.883 82.6398 117.765 82.4019 117.527 82.4019ZM119.309 77.289C119.309 77.0511 119.072 76.9322 118.953 76.9322C118.715 76.9322 118.596 77.1701 118.596 77.4079L119.191 81.6885C119.191 81.9263 119.428 82.0452 119.547 82.0452H119.666C119.785 81.9263 119.904 81.8074 119.904 81.6885L119.309 77.289ZM123.112 77.289C123.112 77.1701 123.112 77.1701 123.112 77.1701C123.112 77.1701 123.112 77.1701 122.993 77.1701C122.993 77.1701 122.993 77.1701 122.874 77.1701L120.26 76.4566C120.022 76.4566 119.785 76.5755 119.785 76.8133C119.666 77.0511 119.904 77.289 120.141 77.289L122.399 77.8835L121.805 80.1427C121.686 80.3805 121.924 80.6183 122.161 80.6183C122.28 80.6183 122.399 80.6183 122.518 80.6183C122.637 80.4994 122.637 80.4994 122.756 80.3805L123.35 77.7646C123.112 77.5268 123.112 77.4079 123.112 77.289ZM85.7982 107.967L83.6592 107.372L84.2534 105.113C84.2534 104.875 84.1345 104.637 83.8969 104.637C83.6592 104.637 83.4215 104.756 83.4215 104.994L82.8274 107.61C82.8274 107.61 82.8274 107.61 82.8274 107.729V107.848L85.4417 108.561C85.5606 108.561 85.6794 108.561 85.7982 108.561C85.9171 108.561 85.9171 108.442 86.0359 108.324C86.1547 108.324 86.0359 108.086 85.7982 107.967ZM87.5807 102.973C87.5807 102.735 87.3431 102.616 87.2242 102.616C86.9866 102.616 86.8677 102.854 86.8677 103.092L87.4619 107.372C87.4619 107.61 87.6996 107.729 87.9372 107.729H88.0561C88.1749 107.61 88.2937 107.491 88.2937 107.372L87.5807 102.973ZM91.3834 102.973C91.3834 102.854 91.3834 102.854 91.3834 102.854C91.3834 102.854 91.3834 102.854 91.2646 102.854C91.2646 102.854 91.2646 102.854 91.1458 102.854L88.5314 102.14C88.2937 102.14 88.0561 102.259 88.0561 102.497C88.0561 102.735 88.1749 102.973 88.4126 102.973L90.6704 103.567L90.0763 105.827C89.9574 106.064 90.1951 106.302 90.4328 106.302C90.5516 106.302 90.6704 106.302 90.7893 106.302C90.9081 106.302 90.9081 106.183 91.0269 106.064L91.6211 103.448C91.3834 103.092 91.3834 103.092 91.3834 102.973C91.3834 103.092 91.3834 103.092 91.3834 102.973ZM118.002 125.803L115.863 125.208L116.457 122.949C116.457 122.711 116.339 122.473 116.101 122.473C115.863 122.473 115.626 122.592 115.626 122.83L115.031 125.446V125.565L117.646 126.278C117.765 126.278 117.883 126.278 118.002 126.16C118.121 126.16 118.121 126.041 118.24 125.922C118.359 126.041 118.24 125.922 118.002 125.803ZM119.666 120.809C119.666 120.571 119.428 120.452 119.309 120.452C119.072 120.452 118.953 120.69 118.953 120.809L119.547 125.089C119.547 125.327 119.785 125.446 120.022 125.446H120.141C120.26 125.327 120.379 125.208 120.379 125.089L119.666 120.809ZM123.587 120.809C123.587 120.69 123.587 120.69 123.587 120.809C123.587 120.69 123.587 120.69 123.587 120.69C123.587 120.69 123.587 120.69 123.469 120.69L120.854 119.976C120.617 119.976 120.379 120.095 120.379 120.333C120.379 120.571 120.498 120.809 120.735 120.809L122.993 121.403L122.399 123.662C122.28 123.9 122.518 124.138 122.756 124.138C122.874 124.138 122.993 124.138 123.112 124.019C123.231 124.019 123.35 123.9 123.35 123.781L123.944 121.165C123.587 120.928 123.587 120.928 123.587 120.809ZM109.684 49.8216C109.565 49.5838 109.327 49.4649 109.09 49.5838L106.475 50.4161C106.475 50.4161 106.475 50.4161 106.357 50.4161C106.357 50.4161 106.357 50.4161 106.238 50.4161L107.07 53.032C107.07 53.1509 107.188 53.2699 107.307 53.2699C107.426 53.2699 107.545 53.3888 107.664 53.2699C107.901 53.1509 108.02 52.9131 107.901 52.6753L107.188 51.1295L109.327 50.4161C109.565 50.2972 109.684 50.0594 109.684 49.8216ZM112.655 51.3674L109.327 54.2211C109.209 54.34 109.209 54.5778 109.327 54.6967C109.327 54.6967 109.446 54.6967 109.446 54.8156C109.565 54.8156 109.684 54.8156 109.803 54.8156L113.011 52.0808C113.011 51.843 112.774 51.6052 112.655 51.3674ZM113.724 52.6753L114.318 54.6967L112.179 55.4102C111.942 55.5291 111.823 55.7669 111.942 56.0047C111.942 56.1236 112.061 56.2425 112.179 56.2425C112.298 56.2425 112.417 56.2425 112.536 56.2425L115.15 55.4102C115.15 55.4102 115.15 55.4102 115.269 55.4102C115.269 55.4102 115.269 55.4102 115.269 55.2913V55.1724C114.794 54.1022 114.2 53.3888 113.724 52.6753ZM100.771 88.9418C100.652 88.704 100.415 88.5851 100.177 88.704L97.5628 89.5363C97.5628 89.5363 97.5628 89.5363 97.5628 89.6552L98.3946 92.2712C98.3946 92.3901 98.5135 92.509 98.6323 92.509C98.7511 92.509 98.87 92.509 98.9888 92.509C99.2265 92.3901 99.3453 92.1523 99.2265 91.9145L98.5135 89.7741L100.652 89.0607C100.771 89.4174 100.89 89.1796 100.771 88.9418ZM104.218 90.6065C104.099 90.4876 103.861 90.3687 103.742 90.6065L100.534 93.3413C100.415 93.4602 100.415 93.6981 100.534 93.817L100.652 93.9359C100.771 94.0548 100.89 93.9359 101.009 93.9359L104.218 91.201C104.336 90.9632 104.336 90.7254 104.218 90.6065ZM106.475 94.0548C106.475 93.9359 106.475 93.9359 106.475 94.0548L105.644 91.4388C105.525 91.201 105.287 91.0821 105.049 91.201C104.812 91.3199 104.693 91.5577 104.812 91.7955L105.525 93.9359L103.386 94.6493C103.148 94.7682 103.029 95.006 103.148 95.2438C103.148 95.3627 103.267 95.4817 103.386 95.4817C103.505 95.4817 103.623 95.6006 103.742 95.4817L106.357 94.6493C106.357 94.6493 106.357 94.6493 106.475 94.6493C106.475 94.1737 106.475 94.1737 106.475 94.0548ZM131.431 108.205C131.312 107.967 131.074 107.848 130.836 107.967L128.222 108.799C128.222 108.799 128.222 108.799 128.103 108.799V108.918L128.935 111.534C128.935 111.653 129.054 111.772 129.173 111.772C129.291 111.772 129.41 111.772 129.529 111.772C129.767 111.653 129.886 111.415 129.767 111.177L129.054 109.037L131.193 108.324C131.431 108.68 131.549 108.442 131.431 108.205ZM134.996 109.869C134.877 109.75 134.639 109.632 134.52 109.869L131.312 112.604C131.193 112.723 131.074 112.961 131.312 113.199C131.312 113.199 131.431 113.199 131.431 113.318C131.549 113.318 131.668 113.318 131.787 113.318L134.996 110.464C135.114 110.226 135.114 109.988 134.996 109.869ZM137.135 113.199L136.303 110.583C136.184 110.345 135.946 110.226 135.709 110.345C135.471 110.464 135.352 110.702 135.471 110.939L136.184 113.08L134.045 113.793C133.807 113.912 133.688 114.15 133.807 114.388C133.807 114.507 133.926 114.626 134.045 114.626C134.164 114.626 134.283 114.626 134.401 114.626L137.016 113.793C137.016 113.793 137.016 113.793 137.135 113.793C137.135 113.793 137.135 113.793 137.135 113.674V113.199ZM100.296 68.7277L101.841 67.063C101.96 66.9441 101.96 66.5874 101.841 66.4685C101.722 66.3496 101.365 66.3496 101.247 66.4685L99.3453 68.371V68.4899V68.6088L101.247 70.5113C101.365 70.6302 101.484 70.6302 101.603 70.6302C101.722 70.6302 101.841 70.6302 101.841 70.5113C101.96 70.3924 101.96 70.0357 101.841 69.9168L100.296 68.7277ZM105.762 66.4685C105.525 66.3496 105.406 66.4685 105.287 66.7063L103.623 70.6302C103.504 70.868 103.623 70.9869 103.861 71.1058H103.98C104.099 71.1058 104.218 70.9869 104.336 70.868L106 66.9441C106.119 66.8252 106 66.5874 105.762 66.4685ZM109.327 68.7277C109.327 68.6088 109.327 68.6088 109.209 68.6088L107.307 66.5874C107.188 66.4685 106.832 66.4685 106.713 66.5874C106.594 66.7063 106.594 67.063 106.713 67.1819L108.377 68.8466L106.713 70.5113C106.594 70.6302 106.594 70.9869 106.713 71.1058C106.832 71.2247 106.951 71.2247 107.07 71.2247C107.188 71.2247 107.307 71.2247 107.307 71.1058L109.209 69.2033C109.327 68.8466 109.327 68.8466 109.327 68.7277ZM119.191 96.314L120.735 94.6493C120.854 94.5304 120.854 94.1737 120.735 94.0548C120.617 93.9359 120.26 93.9359 120.141 94.0548L118.24 95.9573C118.24 95.9573 118.24 95.9573 118.24 96.0762L120.141 97.9787C120.26 98.0976 120.379 98.0976 120.498 98.0976C120.617 98.0976 120.735 98.0976 120.735 97.9787C120.854 97.8598 120.854 97.5031 120.735 97.3842L119.191 96.314ZM124.657 94.0548C124.419 93.9359 124.3 94.0548 124.182 94.2926L122.518 98.2165C122.399 98.4543 122.518 98.5732 122.756 98.6921H122.874C122.993 98.6921 123.112 98.5732 123.231 98.4543L124.895 94.5304C124.895 94.2926 124.776 94.0548 124.657 94.0548ZM128.103 96.1951C128.103 96.0762 128.103 96.0762 127.984 96.0762L126.083 94.1737C125.964 94.0548 125.608 94.0548 125.489 94.1737C125.37 94.2926 125.37 94.6493 125.489 94.7682L127.152 96.314L125.608 97.9787C125.489 98.2165 125.489 98.4543 125.608 98.5732C125.726 98.6921 125.845 98.6921 125.964 98.6921C126.083 98.6921 126.202 98.6921 126.202 98.5732L128.103 96.6707V96.5518C128.103 96.4329 128.103 96.314 128.103 96.1951ZM88.5314 123.187L90.0763 121.522C90.1951 121.284 90.1951 121.047 90.0763 120.928C89.9574 120.809 89.6009 120.809 89.4821 120.928L87.5807 122.83C87.5807 122.83 87.5807 122.83 87.5807 122.949V123.068L89.4821 124.97C89.6009 125.089 89.7197 125.089 89.8386 125.089C89.9574 125.089 90.0763 125.089 90.0763 124.97C90.1951 124.852 90.1951 124.495 90.0763 124.376L88.5314 123.187ZM93.9978 120.928C93.7601 120.809 93.6413 120.928 93.5224 121.165L91.8588 125.089C91.7399 125.327 91.8588 125.446 92.0964 125.565H92.2153C92.3341 125.565 92.4529 125.446 92.5718 125.327L94.2354 121.403C94.2354 121.165 94.2354 120.928 93.9978 120.928ZM97.5628 123.187C97.5628 123.068 97.5628 123.068 97.5628 123.187C97.5628 123.068 97.5628 123.068 97.5628 123.068L95.6615 121.165C95.5426 121.047 95.1861 121.047 95.0673 121.165C94.9484 121.403 94.9484 121.641 95.0673 121.76L96.6121 123.425L95.0673 125.089C94.9484 125.327 94.9484 125.565 95.0673 125.684C95.1861 125.803 95.3049 125.803 95.3049 125.803C95.4238 125.803 95.5426 125.803 95.6615 125.684L97.5628 123.781C97.5628 123.306 97.5628 123.306 97.5628 123.187ZM137.729 128.181C137.61 128.062 137.253 128.062 137.135 128.181L135.233 130.083L135.471 130.321C135.827 130.321 136.303 130.321 136.659 130.321L136.065 129.727L137.61 128.062C137.848 128.657 137.848 128.3 137.729 128.181ZM141.531 128.062C141.294 127.943 141.175 128.062 141.056 128.3L139.987 130.916C140.224 130.916 140.581 130.916 140.818 130.916L141.769 128.657C141.888 128.419 141.769 128.181 141.531 128.062ZM145.096 130.321C145.096 130.202 145.096 130.202 145.096 130.321C145.096 130.202 145.096 130.202 145.096 130.202H144.978L143.195 128.3C142.957 128.181 142.72 128.181 142.601 128.3C142.482 128.419 142.482 128.775 142.601 128.894L144.146 130.559L143.789 130.916C144.621 130.916 145.096 130.916 145.096 130.797C145.096 130.797 145.096 130.797 145.096 130.678V130.321ZM89.1256 84.7801C89.1256 84.5423 88.8879 84.4233 88.6502 84.4233L86.3924 84.899L85.9171 82.6398C85.9171 82.4019 85.6794 82.283 85.4417 82.283C85.2041 82.283 85.0852 82.5208 85.0852 82.7587L85.6794 85.3746C85.6794 85.3746 85.6794 85.3746 85.7982 85.3746L88.4126 84.7801C88.5314 84.7801 88.6502 84.6612 88.6502 84.5423C89.1256 85.0179 89.1256 84.899 89.1256 84.7801ZM90.3139 82.6398L87.8184 79.0726C87.6996 78.9537 87.4619 78.8347 87.3431 78.9537C87.2242 79.0726 87.1054 79.3104 87.2242 79.4293L89.7197 82.9965C89.8386 83.1154 90.0763 83.2343 90.1951 83.1154L90.3139 82.9965C90.4328 82.9965 90.4328 82.8776 90.3139 82.6398ZM91.9776 80.2616L91.3834 77.6457C91.3834 77.6457 91.3834 77.6457 91.3834 77.5268C91.3834 77.5268 91.3834 77.5268 91.3834 77.4079C91.3834 77.4079 91.3834 77.4079 91.2646 77.4079C91.2646 77.4079 91.2646 77.4079 91.1458 77.4079L88.5314 78.0024C88.2937 78.1213 88.1749 78.2402 88.1749 78.478C88.1749 78.7158 88.4126 78.8347 88.6502 78.8347L90.9081 78.3591L91.3834 80.6183C91.5023 80.8562 91.6211 80.9751 91.8588 80.9751C91.9776 80.9751 92.0964 80.8562 92.0964 80.7373C91.9776 80.4994 91.9776 80.3805 91.9776 80.2616ZM108.852 114.15L106.594 114.626L106.119 112.366C106 112.129 105.881 112.01 105.644 112.01C105.406 112.129 105.287 112.247 105.287 112.485L105.881 115.101C105.881 115.101 105.881 115.101 105.881 115.22C105.881 115.22 105.881 115.22 105.881 115.339C105.881 115.339 105.881 115.339 106 115.339L108.614 114.744C108.733 114.744 108.852 114.626 108.852 114.507C108.971 114.388 108.971 114.269 108.971 114.15C109.327 114.269 109.09 114.031 108.852 114.15ZM110.635 112.366L108.139 108.799C108.02 108.68 107.783 108.561 107.664 108.68C107.426 108.799 107.426 109.037 107.545 109.156L110.04 112.723C110.159 112.961 110.397 112.961 110.516 112.842C110.516 112.842 110.635 112.842 110.635 112.723C110.753 112.604 110.753 112.485 110.635 112.366ZM112.298 109.869L111.704 107.253C111.704 107.253 111.704 107.253 111.704 107.134C111.704 107.134 111.704 107.134 111.585 107.134H111.466L108.852 107.729C108.614 107.848 108.496 107.967 108.496 108.205C108.614 108.442 108.733 108.561 108.971 108.561L111.229 108.086L111.704 110.345C111.823 110.583 111.942 110.702 112.179 110.702C112.298 110.702 112.417 110.583 112.417 110.464C112.298 110.107 112.298 109.988 112.298 109.869ZM76.648 129.965L75.5785 128.419C75.5785 128.894 75.5785 129.251 75.5785 129.608L76.0538 130.321C76.1727 130.44 76.4103 130.559 76.5292 130.44L76.648 130.321C76.7668 130.202 76.7668 130.083 76.648 129.965ZM78.3117 127.467L77.7175 124.852C77.7175 124.852 77.7175 124.852 77.7175 124.733C77.7175 124.733 77.7175 124.733 77.7175 124.614C77.7175 124.614 77.7175 124.614 77.5987 124.614H77.4798L76.0538 124.852C76.0538 125.208 76.0538 125.446 75.935 125.803L77.1233 125.565L77.5987 127.824C77.7175 128.062 77.8363 128.181 78.074 128.181C78.1928 128.181 78.3117 128.062 78.3117 127.943C78.3117 127.824 78.4305 127.586 78.3117 127.467Z" fill="#030402"/>
<path d="M95.4238 138.169C92.6906 140.428 87.5807 133.175 87.5807 133.175C87.5807 133.175 87.9372 135.672 86.5112 137.574C84.8475 139.715 80.6883 138.169 80.6883 138.169C80.6883 138.169 80.4507 140.785 78.787 142.568C77.0045 144.471 72.6076 143.52 72.6076 143.52C72.6076 143.52 71.1816 145.779 68.4484 146.373C63.9327 147.325 59.0605 142.212 55.852 139.12C52.7623 135.91 46.8206 123.9 45.3946 121.76L65.7152 101.427C65.7152 101.427 83.8969 111.772 86.9865 115.933C89.8386 119.501 99.7018 134.602 95.4238 138.169Z" fill="#F7A9A0"/>
<path d="M87.6996 132.937C85.7982 128.419 82.8274 124.376 79.8565 120.571C79.7377 120.452 79.6188 120.571 79.7377 120.69C82.7085 124.495 84.7287 129.251 87.4619 133.175C87.5807 133.175 87.6996 133.056 87.6996 132.937Z" fill="#263238"/>
<path d="M80.926 137.693C80.4507 136.742 79.6188 135.791 78.9058 134.959C78.1928 134.007 77.361 133.175 76.5292 132.224C74.9843 130.44 73.3206 128.775 71.657 127.111C71.5381 126.992 71.4193 127.111 71.5381 127.23C73.083 129.013 74.6278 130.797 76.1727 132.58C76.8857 133.532 77.7175 134.364 78.4305 135.315C79.1435 136.148 79.7377 137.099 80.5695 137.812C80.8072 138.05 81.0449 137.931 80.926 137.693Z" fill="#263238"/>
<path d="M72.6076 143.401C72.2511 142.569 71.3005 141.736 70.7063 141.023C69.9933 140.19 69.2803 139.477 68.5673 138.645C67.1413 137.099 65.7152 135.434 64.2892 133.769C64.1704 133.651 64.0516 133.769 64.1704 133.888C65.5964 135.553 67.0224 137.218 68.4484 138.882C69.1614 139.715 69.8744 140.547 70.5875 141.379C71.0628 142.093 71.657 143.044 72.6076 143.401Z" fill="#263238"/>
<path d="M114.556 50.5348C147.592 67.1817 178.251 92.9844 177.538 103.091C176.825 113.674 158.762 128.775 141.413 134.245C137.848 135.434 121.805 110.701 125.251 108.799C127.984 107.372 140.462 101.189 141.769 99.0487C142.601 97.6218 116.933 72.4136 107.545 58.5015C97.8005 44.1139 105.644 46.0164 114.556 50.5348Z" fill="#F7A9A0"/>
<path d="M132.619 106.659C132.619 106.659 121.686 109.75 114.675 112.128C110.753 113.436 104.218 116.29 101.722 118.668C98.0381 122.117 84.9664 138.763 89.0067 142.093C92.5718 145.065 96.1368 138.763 96.1368 138.763C96.1368 138.763 91.6211 145.303 96.1368 147.087C100.652 148.989 104.336 140.19 104.336 140.19C104.336 140.19 99.1076 146.849 104.099 148.276C108.377 149.584 113.843 140.071 113.843 140.071C113.843 140.071 107.545 146.373 111.823 148.157C116.576 150.06 126.439 136.861 126.439 136.861C136.184 136.266 141.888 134.483 148.186 131.391C149.493 130.797 132.619 106.659 132.619 106.659Z" fill="#F7A9A0"/>
<path d="M103.029 142.331C103.386 141.618 103.742 141.023 103.98 140.31C104.574 139.002 105.287 137.694 106 136.505C106.713 135.316 107.545 134.127 108.377 133.056C109.327 131.867 110.278 130.797 111.11 129.489C111.229 129.37 111.348 129.489 111.229 129.608C110.278 130.797 109.565 132.105 108.852 133.294C108.139 134.483 107.307 135.791 106.594 136.98C105.881 138.169 105.049 139.358 104.336 140.547C103.98 141.142 103.623 141.737 103.267 142.331C102.91 142.926 102.673 143.52 102.197 143.996C102.197 143.996 102.078 143.996 102.078 143.877C102.435 143.401 102.791 142.926 103.029 142.331Z" fill="#263238"/>
<path d="M95.1861 139.953C95.5426 138.764 98.157 134.007 98.87 132.818C100.296 130.559 101.96 128.419 103.742 126.397C103.861 126.278 103.98 126.397 103.861 126.516C102.435 128.776 101.009 131.035 99.583 133.413C98.87 134.483 95.7803 139.715 95.4238 140.191C95.4238 140.309 95.1861 140.072 95.1861 139.953Z" fill="#263238"/>
<path d="M110.397 144.709C110.753 143.52 113.249 139.12 113.962 138.05C114.675 136.98 118.002 133.175 119.072 132.224C119.191 132.105 119.309 132.224 119.191 132.342C117.646 134.364 116.101 136.385 114.556 138.526C113.843 139.596 111.229 143.876 110.516 144.828C110.516 144.828 110.278 144.828 110.397 144.709Z" fill="#263238"/>
<path d="M151.751 71.7001L132.144 90.1306C132.144 90.1306 111.11 67.6573 104.693 56.3612C98.2758 45.0651 103.267 44.1138 116.457 50.7726C129.648 57.3125 151.751 71.7001 151.751 71.7001Z" fill="#FFC727"/>
<path opacity="0.1" d="M123.112 77.289C123.112 77.1701 123.112 77.1701 123.112 77.1701C123.112 77.1701 123.112 77.1701 122.993 77.1701C122.993 77.1701 122.993 77.1701 122.874 77.1701L120.26 76.4566C120.141 76.4566 120.141 76.4566 120.022 76.4566C120.379 76.8133 120.617 77.1701 120.973 77.5268L122.28 77.8835L122.043 78.8347C122.28 79.0726 122.518 79.3104 122.756 79.6671L123.231 77.7646C123.112 77.5268 123.112 77.4079 123.112 77.289ZM109.684 49.8216C109.565 49.5838 109.327 49.4649 109.09 49.5838L106.475 50.4161C106.475 50.4161 106.475 50.4161 106.357 50.4161C106.357 50.4161 106.357 50.4161 106.238 50.4161L107.07 53.032C107.07 53.1509 107.188 53.2699 107.307 53.2699C107.426 53.2699 107.545 53.3888 107.664 53.2699C107.901 53.1509 108.02 52.9131 107.901 52.6753L107.188 51.1295L109.327 50.4161C109.565 50.2972 109.684 50.0594 109.684 49.8216ZM113.13 51.4863C113.011 51.3674 112.774 51.2484 112.655 51.4863L109.327 54.2211C109.209 54.34 109.209 54.5778 109.327 54.6967C109.327 54.6967 109.446 54.6967 109.446 54.8156C109.565 54.8156 109.684 54.8156 109.803 54.8156L113.011 52.0808C113.249 51.843 113.249 51.6052 113.13 51.4863ZM115.269 54.8156L114.437 52.1997C114.318 51.9619 114.081 51.843 113.843 51.9619C113.605 52.0808 113.487 52.3186 113.605 52.4375L114.318 54.5778L112.179 55.2913C111.942 55.4102 111.823 55.648 111.942 55.8858C111.942 56.0047 112.061 56.1236 112.179 56.1236C112.298 56.1236 112.417 56.1236 112.536 56.1236L115.15 55.2913C115.15 55.2913 115.15 55.2913 115.269 55.2913C115.269 55.2913 115.269 55.2913 115.269 55.1724V54.8156ZM139.63 73.9596C139.511 73.7218 139.274 73.6029 139.036 73.7218L136.422 74.5541C136.422 74.5541 136.422 74.5541 136.303 74.5541C136.303 74.5541 136.303 74.5541 136.184 74.5541L137.016 77.1701C137.016 77.289 137.135 77.4079 137.253 77.4079C137.372 77.4079 137.491 77.4079 137.61 77.4079C137.848 77.289 137.966 77.0511 137.848 76.9322L137.135 74.7919L139.274 74.0785C139.511 74.4352 139.63 74.1974 139.63 73.9596ZM143.076 75.6243C142.957 75.5054 142.72 75.3865 142.601 75.6243L139.392 78.3591C139.274 78.478 139.274 78.7158 139.392 78.8347L139.511 78.9537C139.63 79.0726 139.749 78.9537 139.868 78.9537L143.076 76.0999C143.195 75.981 143.195 75.7432 143.076 75.6243ZM144.383 76.3377C144.265 76.0999 144.027 75.981 143.789 76.0999C143.552 76.2188 143.433 76.4566 143.552 76.6944L144.265 78.7158L144.978 78.1213L144.383 76.3377ZM141.888 80.0238C141.888 80.1427 142.007 80.2616 142.126 80.2616C142.244 80.2616 142.363 80.3805 142.482 80.2616H142.601L144.146 78.8347L142.244 79.4293C141.888 79.6671 141.769 79.9049 141.888 80.0238ZM128.697 66.9441C128.697 66.7063 128.46 66.5874 128.222 66.5874L125.964 67.063L125.489 64.8038C125.37 64.566 125.251 64.4471 125.013 64.4471C124.776 64.4471 124.657 64.6849 124.657 64.9227L125.251 67.5386C125.251 67.5386 125.251 67.5386 125.37 67.5386L127.984 66.9441C128.103 66.9441 128.222 66.8252 128.222 66.7063C128.697 67.1819 128.697 67.063 128.697 66.9441ZM129.886 64.8038L127.39 61.2366C127.271 61.1177 127.034 60.9988 126.915 61.1177C126.677 61.2366 126.677 61.4744 126.796 61.5933L129.292 65.1605C129.41 65.2794 129.648 65.3983 129.767 65.2794C129.767 65.2794 129.886 65.2794 129.886 65.1605C129.886 65.1605 129.886 65.0416 129.886 64.8038ZM131.549 62.4257L130.955 59.8097C130.955 59.8097 130.955 59.8097 130.955 59.6908C130.955 59.6908 130.955 59.6908 130.836 59.6908C130.836 59.6908 130.836 59.6908 130.718 59.6908L128.103 60.2853C127.865 60.2853 127.747 60.5231 127.747 60.761C127.747 60.9988 127.984 61.1177 128.222 61.1177L130.48 60.6421L130.955 62.9013C131.074 63.1391 131.193 63.258 131.431 63.258C131.549 63.258 131.668 63.1391 131.668 63.0202C131.549 62.6635 131.549 62.5446 131.549 62.4257Z" fill="#030402"/>
<path d="M146.166 69.4411C138.917 77.6457 131.431 83.8288 130.004 85.2557C129.886 85.3746 129.886 85.2557 129.886 85.1368C131.431 83.8288 139.274 75.5053 146.047 69.3222C146.166 69.2033 146.166 69.3222 146.166 69.4411Z" fill="#263238"/>
<path d="M133.451 88.8227C133.332 88.8227 132.381 89.6551 132.262 89.774C129.054 85.969 129.648 86.9202 126.439 83.1152C124.895 81.2127 123.231 79.4291 121.686 77.5266C120.022 75.6241 118.478 73.6027 116.695 71.7002C116.695 71.7002 116.576 71.7002 116.576 71.8191C117.765 73.7216 119.309 75.5052 120.735 77.2888C120.498 77.051 120.141 76.8132 119.904 76.4565C119.191 75.8619 118.596 75.3863 118.002 74.7918C117.883 74.6729 117.765 74.7918 117.883 74.9107C118.478 75.5052 119.072 76.0997 119.547 76.6943C120.141 77.2888 120.617 77.8833 121.211 78.4779C121.805 79.0724 122.399 79.548 122.993 80.0237C123.112 80.1426 123.112 80.1426 123.231 80.2615C124.182 81.3316 125.013 82.5207 125.964 83.5908C129.173 87.3959 132.262 90.3685 132.381 90.2496C132.381 90.1307 133.451 89.0605 133.451 88.8227Z" fill="#263238"/>
<path d="M96.4933 60.761C99.3453 60.4043 104.455 53.9834 106 48.9893C106.119 48.6326 104.931 45.541 103.861 41.6171C103.148 39.239 102.435 36.623 101.96 34.126L87.3431 40.9036C87.3431 40.9036 89.8386 45.7788 90.6704 50.0594C90.7893 50.4162 90.7893 50.7729 90.7893 51.1296V51.2485C90.7893 53.2699 91.8588 61.3556 96.4933 60.761Z" fill="#F7A9A0"/>
<path d="M90.6704 51.1298V51.2487C91.1458 51.2487 91.7399 51.1298 92.3341 51.0109C101.247 48.9895 101.247 37.5745 101.009 34.4829L87.2242 40.9039C87.2242 40.9039 89.7197 45.779 90.5516 50.0597C90.6704 50.5353 90.6704 50.7731 90.6704 51.1298Z" fill="#263238"/>
<path d="M103.148 17.5978C105.049 23.0675 102.554 39.2387 98.6323 42.9248C93.0471 48.2756 83.6592 48.9891 79.0247 42.2114C74.509 35.6716 78.1928 14.6251 82.4709 11.2957C89.0067 6.42056 100.415 9.51213 103.148 17.5978Z" fill="#F7A9A0"/>
<path d="M88.6502 27.8238C88.7691 27.7049 88.7691 27.8238 88.6502 27.8238C88.4126 29.0129 88.4126 30.3209 89.2444 30.7965C88.1749 30.4398 88.2937 28.7751 88.6502 27.8238Z" fill="#263238"/>
<path d="M89.8386 26.8727C91.6211 27.1105 91.0269 30.5588 89.4821 30.4399C87.8184 30.2021 88.4126 26.6349 89.8386 26.8727Z" fill="#263238"/>
<path d="M82.5897 26.6348C82.352 27.8238 81.9955 29.0129 80.926 29.2507V29.3696C82.2332 29.3696 82.7085 27.7049 82.5897 26.6348Z" fill="#263238"/>
<path d="M81.8767 25.3266C80.0942 24.9699 79.5 28.4182 81.0449 28.7749C82.5897 29.1316 83.3027 25.6833 81.8767 25.3266Z" fill="#263238"/>
<path d="M91.5023 25.4458C91.0269 25.208 90.6704 24.9702 90.1951 24.7324C89.7198 24.4946 89.2444 24.2568 89.0067 23.7811C88.8879 23.5433 89.0067 23.0677 89.2444 22.9488C89.8386 22.5921 90.5516 22.711 91.1458 23.0677C91.8588 23.4244 92.2153 23.7811 92.5718 24.4946C92.9283 25.0891 92.0964 25.6836 91.5023 25.4458Z" fill="#263238"/>
<path d="M80.6884 21.8785C81.1637 21.8785 81.639 21.7596 82.1144 21.7596C82.7085 21.6407 83.0651 21.7596 83.5404 21.284C83.7781 21.0462 83.7781 20.5706 83.6592 20.3327C83.3027 19.7382 82.5897 19.6193 81.8767 19.7382C81.1637 19.7382 80.5695 19.976 80.0942 20.5706C79.6189 20.9273 79.9754 21.8785 80.6884 21.8785Z" fill="#263238"/>
<path d="M88.1749 38.0498C87.8184 38.2876 87.5808 38.5254 87.1054 38.5254C86.7489 38.5254 86.2736 38.2876 86.0359 38.0498C86.2736 38.5254 86.7489 38.8822 87.3431 38.8822C87.6996 39.0011 88.0561 38.6443 88.1749 38.0498Z" fill="#263238"/>
<path d="M87.4619 34.7206C86.7489 35.553 85.6794 35.9097 84.7287 36.0286C84.2534 36.0286 83.778 36.0286 83.4215 35.9097C83.3027 35.9097 83.3027 35.9097 83.1839 35.7908C83.065 35.7908 83.065 35.7908 82.9462 35.6719C82.8274 35.6719 82.8274 35.553 82.7085 35.4341V35.3152V35.1963C82.8274 34.3639 83.065 33.0559 83.065 33.0559C82.7085 33.1749 81.0449 33.6505 81.1637 33.1749C81.9955 29.6077 82.8274 25.5648 84.3722 22.2355C84.3722 22.1166 84.6099 22.2355 84.6099 22.2355C84.0157 25.6838 82.8274 29.0131 82.1144 32.5803C82.5897 32.4614 83.5404 32.2236 83.8969 32.3425C84.0157 32.3425 83.3027 34.7206 83.3027 35.1963C84.7287 35.553 85.9171 35.3152 87.4619 34.7206C87.5807 34.6017 87.4619 34.4828 87.4619 34.7206Z" fill="#263238"/>
<path d="M84.0157 35.4337C84.0157 35.4337 84.6099 36.5038 85.5606 37.0983C85.9171 37.3362 86.2736 37.4551 86.7489 37.3362C87.6996 37.2172 87.8184 36.5038 87.6996 35.7904C87.6996 35.1958 87.4619 34.7202 87.4619 34.7202C87.4619 34.7202 86.0359 35.6715 84.0157 35.4337Z" fill="#263238"/>
<path d="M85.5606 37.0984C85.9171 37.3362 86.2736 37.4551 86.7489 37.3362C87.6996 37.2173 87.8184 36.5039 87.6996 35.7904C86.7489 35.6715 85.7982 36.1471 85.5606 37.0984Z" fill="#FF9BBC"/>
<path d="M102.554 32.3422C102.554 32.3422 108.377 22.7108 107.901 17.1222C107.664 14.6252 104.218 12.8416 104.218 12.8416C104.218 12.8416 105.287 9.75002 102.435 7.13408C99.4641 4.28032 92.2153 4.99376 92.2153 4.99376C92.2153 4.99376 87.5807 -1.78391 80.926 0.950943C74.2713 3.68579 78.6682 11.1769 78.6682 11.1769C78.6682 11.1769 76.2915 14.6252 82.1144 17.36C87.9372 19.976 99.7018 17.36 99.7018 17.36C99.7018 17.36 98.6323 23.3054 99.8206 29.4885C100.177 31.7477 102.554 32.3422 102.554 32.3422Z" fill="#263238"/>
<path d="M91.0269 4.99397C92.4529 4.39943 94.1166 4.16162 95.6614 4.16162C97.0875 4.16162 98.5135 4.39943 99.8206 4.87506C102.197 5.7074 104.336 7.491 104.693 10.1069C104.931 11.4149 104.574 12.7229 103.742 13.793H103.623C105.168 11.8905 104.336 8.91788 102.791 7.3721C101.009 5.5885 98.2758 4.87506 95.7803 4.75615C94.1166 4.63725 92.4529 4.99397 90.9081 5.23178C91.0269 5.23178 90.9081 4.99397 91.0269 4.99397Z" fill="#263238"/>
<path d="M76.1727 4.04259C76.7668 2.14008 78.3117 0.951018 80.0942 0.475393C82.1144 -0.11914 84.3722 -0.0002333 86.3924 0.713205C88.4126 1.42664 90.1951 2.85352 91.5023 4.51821C91.5023 4.51821 91.5023 4.63712 91.3834 4.51821C88.8879 1.54555 84.9664 -0.11914 81.1637 0.713205C79.5 1.06992 77.7175 2.02118 76.8857 3.56696C76.1727 5.11274 76.2915 7.01525 77.0045 8.44212C77.9552 10.2257 79.5 11.6526 81.2825 12.7228V12.8417C79.6188 11.8904 78.074 10.8203 77.0045 9.27447C76.0538 7.72869 75.5785 5.82618 76.1727 4.04259Z" fill="#263238"/>
<path d="M88.6502 34.126C86.1547 33.2937 84.8475 30.5588 85.6794 28.0618C86.5112 25.5648 89.2444 24.2568 91.7399 25.0891C94.2354 25.9215 95.5426 28.6563 94.7108 31.1534C93.9978 33.2937 91.9776 34.6016 89.8386 34.3638C89.3632 34.3638 89.0067 34.2449 88.6502 34.126ZM86.1547 28.2996C85.4417 30.4399 86.6301 32.818 88.7691 33.5315C90.9081 34.2449 93.2848 33.0559 93.9978 30.9155C94.7108 28.7752 93.5224 26.3971 91.3834 25.6837C91.0269 25.5648 90.6704 25.4458 90.4327 25.4458C88.5314 25.3269 86.7489 26.516 86.1547 28.2996Z" fill="#455A64"/>
<path d="M78.6682 32.2236C76.7668 31.8669 75.5785 29.4887 76.0538 26.8728C76.2915 25.6837 76.8857 24.4947 77.7175 23.7812C78.5493 22.9489 79.5 22.7111 80.4507 22.83C81.4014 23.0678 82.2332 23.6623 82.7085 24.7325C83.1839 25.6837 83.3027 26.9917 83.065 28.1808C82.5897 30.6778 80.8072 32.3425 79.0247 32.2236C78.9058 32.2236 78.787 32.2236 78.6682 32.2236ZM78.1928 24.2569C77.4798 24.9703 77.0045 25.9215 76.7668 26.9917C76.2915 29.2509 77.2422 31.2723 78.787 31.6291C80.3319 31.9858 81.9955 30.3211 82.4709 28.0619C82.7085 26.9917 82.5897 25.8026 82.1144 24.9703C81.7579 24.1379 81.0448 23.5434 80.3318 23.4245C80.213 23.4245 80.213 23.4245 80.0942 23.4245C79.5 23.4245 78.787 23.6623 78.1928 24.2569Z" fill="#455A64"/>
<path d="M85.6794 28.6564L86.1547 28.2997C85.5605 27.5862 84.0157 26.3972 82.7085 27.4673L83.065 27.943C84.2534 26.9917 85.5605 28.6564 85.6794 28.6564Z" fill="#455A64"/>
<path d="M106.357 34.007L106.951 33.7692C106.832 33.5314 106.119 30.9154 104.693 30.4398C103.386 29.9642 94.8296 29.1318 94.4731 29.1318V29.7264C96.9686 29.9642 103.504 30.6776 104.455 31.0343C105.406 31.3911 106.119 33.2936 106.357 34.007Z" fill="#455A64"/>
<path d="M100.058 30.7964C100.058 30.7964 103.623 25.5645 106 26.8725C108.377 28.1805 105.644 35.6716 102.91 36.7418C100.177 37.8119 99.1076 35.196 99.1076 35.196L100.058 30.7964Z" fill="#F7A9A0"/>
<path d="M105.168 29.0127C105.287 29.0127 105.287 29.1316 105.168 29.0127C103.267 29.845 102.197 31.7475 101.484 33.5311C102.078 32.8177 102.791 32.461 103.861 33.0555V33.1744C103.029 33.0555 102.435 33.1744 101.96 33.769C101.603 34.2446 101.365 34.8391 101.009 35.3147C100.89 35.4336 100.652 35.4336 100.652 35.1958C100.652 32.8177 102.554 29.3694 105.168 29.0127Z" fill="#263238"/>
<path d="M107.426 50.6539C106 53.2699 105.049 55.648 103.386 57.9072C101.841 59.9286 99.9395 61.8311 97.444 62.5446C95.0673 63.258 92.5718 63.1391 91.1457 60.4043C89.9574 58.145 89.6009 55.7669 89.4821 52.6753C89.4821 52.5564 89.2444 52.5564 89.2444 52.6753C89.4821 56.7182 89.9574 62.7824 93.7601 63.4958C98.0381 64.2093 101.484 61.4744 103.742 58.2639C105.406 55.8858 106.357 53.3888 107.426 50.6539C107.545 50.6539 107.426 50.535 107.426 50.6539Z" fill="#263238"/>
<path d="M136.184 145.66H60.2489V149.108H136.184V145.66Z" fill="#C7C7C7"/>
<path d="M60.2489 145.66V148.99H111.823L109.209 145.66H60.2489Z" fill="#A6A6A6"/>
<path d="M106 148.989H31.9664L25.787 98.6919H99.8206L106 148.989Z" fill="#C7C7C7"/>
<path d="M70.3498 123.9C70.3498 126.397 68.4484 128.419 65.9529 128.419C63.4574 128.419 61.4372 126.397 61.3184 123.9C61.3184 121.403 63.2197 119.382 65.7153 119.382C68.3296 119.382 70.3498 121.403 70.3498 123.9Z" fill="white"/>
</g>
<defs>
<clipPath id="clip0_29_185">
<rect width="212" height="361" fill="white"/>
</clipPath>
</defs>
</svg>
